<?xml version="1.0" encoding="iso-8859-1"?>
<!-- Generator: Adobe Illustrator 19.0.0, SVG Export Plug-In . SVG Version: 6.00 Build 0)  -->
<svg version="1.1" id="Layer_1" xmlns="http://www.w3.org/2000/svg" xmlns:xlink="http://www.w3.org/1999/xlink" x="0px" y="0px"
	 viewBox="0 0 502 502" style="enable-background:new 0 0 502 502;" xml:space="preserve">
<g>
	<g>
		<g>
			<path d="M46.175,156.04c5.523,0,10-4.477,10-10v-13.247c0-5.523-4.477-10-10-10s-10,4.477-10,10v13.247
				C36.175,151.563,40.652,156.04,46.175,156.04z"/>
			<path d="M82.351,120.755c-5.523,0-10,4.477-10,10v57.065c0,12.193-7.394,22.5-16.176,22.604v-34.833c0-5.523-4.477-10-10-10
				s-10,4.477-10,10v34.833C27.393,210.32,20,200.013,20,187.82v-57.065c0-5.523-4.477-10-10-10s-10,4.477-10,10v57.065
				c0,23.442,16.216,42.519,36.175,42.605v155.086c0,5.523,4.477,10,10,10s10-4.477,10-10V230.425
				c19.959-0.085,36.176-19.163,36.176-42.605v-57.065C92.351,125.232,87.874,120.755,82.351,120.755z"/>
			<path d="M465.109,130.741c-2.27-3.189-4.26-6.601-8.349-7.633c-6.205-1.566-12.465,3.247-12.465,9.685v252.719h0.001
				c0,5.523,4.478,10,10,10c5.522,0,10-4.477,10-10V303.8H492c5.522,0,10-4.477,10-10v-47.581
				C502,204.592,489.243,164.66,465.109,130.741z M482,283.799h-17.704V168.487C475.939,192.598,482,219.006,482,246.219V283.799z"
				/>
			<path d="M264.247,87.127c-90.36,0-163.873,73.513-163.873,163.873s73.513,163.873,163.873,163.873S428.12,341.36,428.12,251
				S354.607,87.127,264.247,87.127z M264.247,394.873c-79.332,0-143.873-64.541-143.873-143.873s64.541-143.873,143.873-143.873
				S408.12,171.668,408.12,251S343.579,394.873,264.247,394.873z"/>
			<path d="M306.109,181.313c-16.422,0-31.445,7.621-41.203,19.887c-9.759-12.266-24.783-19.887-41.204-19.887
				c-29.011,0-52.614,23.602-52.614,52.614c0,24.447,21.137,44.764,38.121,61.089c2.635,2.534,5.125,4.927,7.421,7.223
				c20.657,20.656,41.309,39.619,41.515,39.808c1.912,1.754,4.336,2.63,6.76,2.63c2.432,0,4.863-0.882,6.778-2.647
				c0.217-0.2,21.964-20.26,41.497-39.792c2.296-2.296,4.785-4.689,7.421-7.222c16.983-16.324,38.121-36.641,38.121-61.089
				C358.722,204.916,335.12,181.313,306.109,181.313z M306.742,280.596c-2.709,2.604-5.267,5.063-7.704,7.499
				c-12.641,12.641-26.241,25.522-34.142,32.925c-7.696-7.199-20.911-19.712-34.123-32.924c-2.436-2.437-4.995-4.896-7.704-7.5
				c-14.249-13.694-31.981-30.739-31.981-46.669c0-17.983,14.631-32.614,32.614-32.614c14.798,0,27.765,9.98,31.535,24.269
				c1.158,4.391,5.129,7.45,9.669,7.45c4.541,0,8.512-3.059,9.669-7.45c3.768-14.29,16.736-24.27,31.534-24.27
				c17.983,0,32.613,14.631,32.613,32.614C338.722,249.857,320.99,266.901,306.742,280.596z"/>
			<path d="M217.376,150.236c1.301,0,2.624-0.255,3.897-0.794c13.604-5.765,28.062-8.687,42.974-8.687
				c12.5,0,24.759,2.073,36.438,6.161c5.21,1.826,10.917-0.921,12.742-6.134c1.824-5.213-0.922-10.918-6.135-12.743
				c-13.807-4.833-28.29-7.284-43.046-7.284c-17.607,0-34.691,3.455-50.776,10.271c-5.085,2.155-7.461,8.024-5.306,13.109
				C209.779,147.947,213.481,150.236,217.376,150.236z"/>
			<path d="M176.42,184.354c4.429-5.828,9.461-11.238,14.956-16.083c4.143-3.652,4.54-9.971,0.888-14.114
				c-3.652-4.142-9.971-4.54-14.114-0.888c-6.485,5.717-12.424,12.104-17.653,18.982c-3.342,4.397-2.487,10.671,1.91,14.013
				c1.809,1.374,3.935,2.039,6.044,2.039C171.469,188.303,174.453,186.942,176.42,184.354z"/>
		</g>
	</g>
</g>
<g>
</g>
<g>
</g>
<g>
</g>
<g>
</g>
<g>
</g>
<g>
</g>
<g>
</g>
<g>
</g>
<g>
</g>
<g>
</g>
<g>
</g>
<g>
</g>
<g>
</g>
<g>
</g>
<g>
</g>
</svg>
